<svg width="1280" height="420" viewBox="0 0 1280 420" fill="none" xmlns="http://www.w3.org/2000/svg" role="img" aria-labelledby="title desc">
  <title id="title">MooSaver Moodle-style banner</title>
  <desc id="desc">MooSaver banner with Moodle-inspired course cards, module rows, and course backup visual elements.</desc>
  <defs>
    <linearGradient id="bg" x1="0" y1="0" x2="1280" y2="420" gradientUnits="userSpaceOnUse">
      <stop offset="0" stop-color="#FFF7ED"/>
      <stop offset="0.52" stop-color="#FFFFFF"/>
      <stop offset="1" stop-color="#EAF7F0"/>
    </linearGradient>
    <linearGradient id="orange" x1="152" y1="76" x2="1066" y2="349" gradientUnits="userSpaceOnUse">
      <stop offset="0" stop-color="#F98012"/>
      <stop offset="1" stop-color="#FFB238"/>
    </linearGradient>
    <linearGradient id="green" x1="748" y1="248" x2="1000" y2="324" gradientUnits="userSpaceOnUse">
      <stop offset="0" stop-color="#1FA463"/>
      <stop offset="1" stop-color="#22C55E"/>
    </linearGradient>
    <filter id="softShadow" x="107" y="39" width="1066" height="362" filterUnits="userSpaceOnUse" color-interpolation-filters="sRGB">
      <feFlood flood-opacity="0" result="BackgroundImageFix"/>
      <feColorMatrix in="SourceAlpha" type="matrix" values="0 0 0 0 0 0 0 0 0 0 0 0 0 0 0 0 0 0 127 0" result="hardAlpha"/>
      <feOffset dy="18"/>
      <feGaussianBlur stdDeviation="26"/>
      <feComposite in2="hardAlpha" operator="out"/>
      <feColorMatrix type="matrix" values="0 0 0 0 0.2 0 0 0 0 0.11 0 0 0 0 0.03 0 0 0 0.16 0"/>
      <feBlend mode="normal" in2="BackgroundImageFix" result="effect1_dropShadow_1_1"/>
      <feBlend mode="normal" in="SourceGraphic" in2="effect1_dropShadow_1_1" result="shape"/>
    </filter>
    <pattern id="dots" width="42" height="42" patternUnits="userSpaceOnUse">
      <circle cx="6" cy="6" r="2" fill="#F98012" fill-opacity="0.12"/>
    </pattern>
  </defs>

  <rect width="1280" height="420" fill="url(#bg)"/>
  <rect width="1280" height="420" fill="url(#dots)"/>
  <path d="M0 318C113 286 222 298 334 324C454 352 558 369 686 333C815 297 937 257 1080 292C1149 309 1207 338 1280 321V420H0V318Z" fill="#FAD7A0" fill-opacity="0.45"/>
  <path d="M0 352C166 318 282 347 410 364C551 383 691 355 823 318C956 281 1094 305 1280 363V420H0V352Z" fill="#BFE8CF" fill-opacity="0.65"/>

  <g filter="url(#softShadow)">
    <rect x="140" y="64" width="1000" height="284" rx="30" fill="#FFFFFF"/>
    <rect x="140" y="64" width="1000" height="74" rx="30" fill="url(#orange)"/>
    <path d="M140 109H1140V138H140V109Z" fill="url(#orange)"/>
  </g>

  <g transform="translate(180 88)">
    <circle cx="24" cy="14" r="7" fill="#FFFFFF" fill-opacity="0.92"/>
    <circle cx="49" cy="14" r="7" fill="#FFFFFF" fill-opacity="0.72"/>
    <circle cx="74" cy="14" r="7" fill="#FFFFFF" fill-opacity="0.72"/>
    <rect x="118" y="2" width="250" height="24" rx="12" fill="#FFFFFF" fill-opacity="0.28"/>
    <rect x="856" y="0" width="64" height="28" rx="14" fill="#FFFFFF" fill-opacity="0.24"/>
  </g>

  <g transform="translate(196 166)">
    <rect x="0" y="0" width="286" height="158" rx="20" fill="#FFF7ED" stroke="#FED7AA" stroke-width="2"/>
    <rect x="24" y="24" width="88" height="74" rx="16" fill="#F98012"/>
    <path d="M46 54L68 42L90 54L68 66L46 54Z" fill="#FFFFFF"/>
    <path d="M55 60V75C55 81 60 86 68 86C76 86 81 81 81 75V60" stroke="#FFFFFF" stroke-width="6" stroke-linecap="round"/>
    <path d="M90 54V74" stroke="#FFFFFF" stroke-width="5" stroke-linecap="round"/>
    <circle cx="90" cy="79" r="5" fill="#FFFFFF"/>
    <rect x="132" y="30" width="120" height="14" rx="7" fill="#9A3412" fill-opacity="0.92"/>
    <rect x="132" y="61" width="96" height="12" rx="6" fill="#C2410C" fill-opacity="0.52"/>
    <rect x="132" y="89" width="124" height="12" rx="6" fill="#C2410C" fill-opacity="0.32"/>
    <rect x="24" y="124" width="82" height="10" rx="5" fill="#F98012" fill-opacity="0.48"/>
    <rect x="120" y="124" width="74" height="10" rx="5" fill="#22C55E" fill-opacity="0.38"/>
    <rect x="208" y="124" width="54" height="10" rx="5" fill="#0EA5E9" fill-opacity="0.35"/>
  </g>

  <g transform="translate(518 174)">
    <text x="0" y="56" fill="#1F2937" font-family="Inter, ui-sans-serif, system-ui, -apple-system, BlinkMacSystemFont, 'Segoe UI', sans-serif" font-size="60" font-weight="850" letter-spacing="0">MooSaver</text>
    <text x="2" y="96" fill="#7C2D12" font-family="Inter, ui-sans-serif, system-ui, -apple-system, BlinkMacSystemFont, 'Segoe UI', sans-serif" font-size="22" font-weight="750" letter-spacing="0">Moodle resources, backed up in one click</text>
    <g transform="translate(2 128)">
      <rect x="0" y="0" width="118" height="36" rx="18" fill="#FFF1E6"/>
      <text x="20" y="24" fill="#C2410C" font-family="Inter, ui-sans-serif, system-ui, -apple-system, BlinkMacSystemFont, 'Segoe UI', sans-serif" font-size="15" font-weight="800" letter-spacing="0">Courses</text>
      <rect x="132" y="0" width="128" height="36" rx="18" fill="#EAF7EF"/>
      <text x="153" y="24" fill="#15803D" font-family="Inter, ui-sans-serif, system-ui, -apple-system, BlinkMacSystemFont, 'Segoe UI', sans-serif" font-size="15" font-weight="800" letter-spacing="0">Resources</text>
      <rect x="274" y="0" width="110" height="36" rx="18" fill="#EEF6FF"/>
      <text x="296" y="24" fill="#0369A1" font-family="Inter, ui-sans-serif, system-ui, -apple-system, BlinkMacSystemFont, 'Segoe UI', sans-serif" font-size="15" font-weight="800" letter-spacing="0">Archive</text>
    </g>
  </g>

  <g transform="translate(918 152)">
    <rect x="0" y="0" width="194" height="176" rx="20" fill="#F8FAFC" stroke="#E2E8F0" stroke-width="2"/>
    <rect x="18" y="18" width="154" height="28" rx="14" fill="#F98012" fill-opacity="0.16"/>
    <circle cx="35" cy="32" r="7" fill="#F98012"/>
    <rect x="51" y="26" width="92" height="12" rx="6" fill="#9A3412" fill-opacity="0.72"/>
    <rect x="18" y="62" width="154" height="26" rx="13" fill="#FFFFFF" stroke="#E2E8F0"/>
    <path d="M32 75H46" stroke="#F98012" stroke-width="5" stroke-linecap="round"/>
    <path d="M60 75H135" stroke="#64748B" stroke-width="5" stroke-linecap="round"/>
    <rect x="18" y="98" width="154" height="26" rx="13" fill="#FFFFFF" stroke="#E2E8F0"/>
    <path d="M32 111H46" stroke="#22C55E" stroke-width="5" stroke-linecap="round"/>
    <path d="M60 111H124" stroke="#64748B" stroke-width="5" stroke-linecap="round"/>
    <rect x="18" y="134" width="90" height="10" rx="5" fill="#CBD5E1"/>
    <rect x="18" y="154" width="118" height="8" rx="4" fill="#E2E8F0"/>
    <g transform="translate(104 112)">
      <circle cx="36" cy="36" r="31" fill="url(#green)"/>
      <path d="M23 36L33 46L51 26" stroke="#FFFFFF" stroke-width="8" stroke-linecap="round" stroke-linejoin="round"/>
    </g>
  </g>
</svg>
